<mxfile host="app.diagrams.net" modified="2023-09-17T18:42:04.951Z" agent="Mozilla/5.0 (Windows NT 10.0; Win64; x64) AppleWebKit/537.36 (KHTML, like Gecko) Chrome/116.0.0.0 Safari/537.36" etag="vmOz8QmlATFvrpyHBr6s" version="21.7.5" type="device">
  <diagram name="Page-1" id="c4acf3e9-155e-7222-9cf6-157b1a14988f">
    <mxGraphModel dx="3940" dy="3112" grid="1" gridSize="10" guides="1" tooltips="1" connect="1" arrows="1" fold="1" page="1" pageScale="1" pageWidth="850" pageHeight="1100" background="none" math="0" shadow="0">
      <root>
        <mxCell id="0" />
        <mxCell id="1" parent="0" />
        <mxCell id="uBJAZesU7mmP7-SFN5pD-27" value="" style="rounded=0;whiteSpace=wrap;html=1;" vertex="1" parent="1">
          <mxGeometry x="-880" y="-1520" width="1150" height="1260" as="geometry" />
        </mxCell>
        <mxCell id="uBJAZesU7mmP7-SFN5pD-18" value="" style="rounded=1;whiteSpace=wrap;html=1;" vertex="1" parent="1">
          <mxGeometry x="-180" y="-1050" width="410" height="370" as="geometry" />
        </mxCell>
        <mxCell id="uBJAZesU7mmP7-SFN5pD-22" value="" style="rounded=0;whiteSpace=wrap;html=1;" vertex="1" parent="1">
          <mxGeometry x="-150" y="-800" width="350" height="100" as="geometry" />
        </mxCell>
        <mxCell id="uBJAZesU7mmP7-SFN5pD-10" value="" style="rounded=1;whiteSpace=wrap;html=1;" vertex="1" parent="1">
          <mxGeometry x="-840" y="-1440" width="1070" height="310" as="geometry" />
        </mxCell>
        <mxCell id="uBJAZesU7mmP7-SFN5pD-5" value="" style="rounded=1;whiteSpace=wrap;html=1;" vertex="1" parent="1">
          <mxGeometry x="-840" y="-660" width="630" height="380" as="geometry" />
        </mxCell>
        <mxCell id="uBJAZesU7mmP7-SFN5pD-6" value="" style="rounded=0;whiteSpace=wrap;html=1;" vertex="1" parent="1">
          <mxGeometry x="-810" y="-470" width="570" height="160" as="geometry" />
        </mxCell>
        <mxCell id="uBJAZesU7mmP7-SFN5pD-3" value="" style="rounded=1;whiteSpace=wrap;html=1;" vertex="1" parent="1">
          <mxGeometry x="-840" y="-1100" width="490" height="400" as="geometry" />
        </mxCell>
        <mxCell id="Mkw8pJ0zq_z8xdQMw_YS-19" value="&lt;p style=&quot;margin:0px;margin-top:4px;text-align:center;&quot;&gt;&lt;b&gt;Email&lt;/b&gt;&lt;/p&gt;&lt;hr size=&quot;1&quot;&gt;&lt;p style=&quot;margin:0px;margin-left:4px;&quot;&gt;- enderecoEletronico: String&lt;/p&gt;&lt;hr size=&quot;1&quot;&gt;&lt;p style=&quot;margin:0px;margin-left:4px;&quot;&gt;+ Email(enderecoEletronico: String)&lt;/p&gt;&lt;p style=&quot;margin:0px;margin-left:4px;&quot;&gt;+ enviarEmail(): void&lt;/p&gt;&lt;p style=&quot;margin:0px;margin-left:4px;&quot;&gt;+ excluirEmail(): void&lt;br&gt;&lt;/p&gt;" style="verticalAlign=top;align=left;overflow=fill;fontSize=12;fontFamily=Helvetica;html=1;whiteSpace=wrap;" parent="1" vertex="1">
          <mxGeometry x="-545" y="-602" width="290" height="105" as="geometry" />
        </mxCell>
        <mxCell id="Mkw8pJ0zq_z8xdQMw_YS-20" value="&lt;p style=&quot;margin:0px;margin-top:4px;text-align:center;&quot;&gt;&lt;b&gt;Navegador&lt;/b&gt;&lt;/p&gt;&lt;hr size=&quot;1&quot;&gt;&lt;p style=&quot;margin:0px;margin-left:4px;&quot;&gt;- url: String&lt;/p&gt;&lt;hr size=&quot;1&quot;&gt;&lt;p style=&quot;margin:0px;margin-left:4px;&quot;&gt;# Navegador(url: String)&lt;/p&gt;&lt;p style=&quot;margin:0px;margin-left:4px;&quot;&gt;+ exibirPagina(): void&lt;/p&gt;&lt;p style=&quot;margin:0px;margin-left:4px;&quot;&gt;+ adicionarNovaAba(): void&lt;br&gt;&lt;/p&gt;&lt;p style=&quot;border-color: var(--border-color); margin: 0px 0px 0px 4px;&quot;&gt;+ atualizarPagina(): void&lt;br style=&quot;border-color: var(--border-color);&quot;&gt;&lt;/p&gt;&lt;p style=&quot;border-color: var(--border-color); margin: 0px 0px 0px 4px;&quot;&gt;&lt;br style=&quot;border-color: var(--border-color);&quot;&gt;&lt;/p&gt;" style="verticalAlign=top;align=left;overflow=fill;fontSize=12;fontFamily=Helvetica;html=1;whiteSpace=wrap;" parent="1" vertex="1">
          <mxGeometry x="-770" y="-622" width="160" height="125" as="geometry" />
        </mxCell>
        <mxCell id="Mkw8pJ0zq_z8xdQMw_YS-61" value="Chrome" style="swimlane;fontStyle=0;childLayout=stackLayout;horizontal=1;startSize=30;fillColor=default;horizontalStack=0;resizeParent=1;resizeParentMax=0;resizeLast=0;collapsible=1;marginBottom=0;whiteSpace=wrap;html=1;" parent="1" vertex="1">
          <mxGeometry x="-802.5" y="-380" width="120" height="56" as="geometry" />
        </mxCell>
        <mxCell id="Mkw8pJ0zq_z8xdQMw_YS-65" value="Safari" style="swimlane;fontStyle=0;childLayout=stackLayout;horizontal=1;startSize=30;fillColor=default;horizontalStack=0;resizeParent=1;resizeParentMax=0;resizeLast=0;collapsible=1;marginBottom=0;whiteSpace=wrap;html=1;" parent="1" vertex="1">
          <mxGeometry x="-650" y="-380" width="120" height="56" as="geometry" />
        </mxCell>
        <mxCell id="Mkw8pJ0zq_z8xdQMw_YS-79" value="&lt;p style=&quot;margin:0px;margin-top:4px;text-align:center;&quot;&gt;&lt;b&gt;ReprodutorMusical&lt;/b&gt;&lt;/p&gt;&lt;hr size=&quot;1&quot;&gt;&lt;p style=&quot;margin:0px;margin-left:4px;&quot;&gt;- nomeMusica: String&lt;/p&gt;&lt;p style=&quot;margin:0px;margin-left:4px;&quot;&gt;- artista: String&lt;/p&gt;&lt;hr size=&quot;1&quot;&gt;&lt;p style=&quot;margin:0px;margin-left:4px;&quot;&gt;#&amp;nbsp;ReprodutorMusical(nomeMusica: String, artista: String)&lt;/p&gt;&lt;p style=&quot;margin:0px;margin-left:4px;&quot;&gt;+ tocarMusica(): void&lt;/p&gt;&lt;p style=&quot;margin:0px;margin-left:4px;&quot;&gt;&lt;span style=&quot;background-color: initial;&quot;&gt;+ pausarMusica(): void&lt;/span&gt;&lt;br&gt;&lt;/p&gt;&lt;p style=&quot;border-color: var(--border-color); margin: 0px 0px 0px 4px;&quot;&gt;+ selecionarMusica(): void&lt;br style=&quot;border-color: var(--border-color);&quot;&gt;&lt;/p&gt;&lt;p style=&quot;border-color: var(--border-color); margin: 0px 0px 0px 4px;&quot;&gt;&lt;br style=&quot;border-color: var(--border-color);&quot;&gt;&lt;/p&gt;" style="verticalAlign=top;align=left;overflow=fill;fontSize=12;fontFamily=Helvetica;html=1;whiteSpace=wrap;" parent="1" vertex="1">
          <mxGeometry x="-135" y="-1000" width="320" height="137.5" as="geometry" />
        </mxCell>
        <mxCell id="Mkw8pJ0zq_z8xdQMw_YS-81" value="Itunes" style="swimlane;fontStyle=0;childLayout=stackLayout;horizontal=1;startSize=30;fillColor=default;horizontalStack=0;resizeParent=1;resizeParentMax=0;resizeLast=0;collapsible=1;marginBottom=0;whiteSpace=wrap;html=1;" parent="1" vertex="1">
          <mxGeometry x="-135" y="-770" width="120" height="56" as="geometry" />
        </mxCell>
        <mxCell id="Mkw8pJ0zq_z8xdQMw_YS-82" value="Spotify" style="swimlane;fontStyle=0;childLayout=stackLayout;horizontal=1;startSize=30;fillColor=default;horizontalStack=0;resizeParent=1;resizeParentMax=0;resizeLast=0;collapsible=1;marginBottom=0;whiteSpace=wrap;html=1;" parent="1" vertex="1">
          <mxGeometry x="65" y="-770" width="120" height="56" as="geometry" />
        </mxCell>
        <mxCell id="Mkw8pJ0zq_z8xdQMw_YS-90" value="&lt;p style=&quot;margin:0px;margin-top:4px;text-align:center;&quot;&gt;&lt;b&gt;Instagram&lt;/b&gt;&lt;/p&gt;&lt;hr size=&quot;1&quot;&gt;&lt;p style=&quot;margin:0px;margin-left:4px;&quot;&gt;- usuario: String&lt;/p&gt;&lt;p style=&quot;margin:0px;margin-left:4px;&quot;&gt;- senha: String&lt;/p&gt;&lt;hr size=&quot;1&quot;&gt;&lt;p style=&quot;border-color: var(--border-color); margin: 0px 0px 0px 4px;&quot;&gt;+ Instagram(usuario: String, senha: String)&lt;/p&gt;" style="verticalAlign=top;align=left;overflow=fill;fontSize=12;fontFamily=Helvetica;html=1;whiteSpace=wrap;" parent="1" vertex="1">
          <mxGeometry x="-495" y="-414" width="240" height="90" as="geometry" />
        </mxCell>
        <mxCell id="Mkw8pJ0zq_z8xdQMw_YS-92" value="&lt;p style=&quot;margin:0px;margin-top:4px;text-align:center;&quot;&gt;&lt;b&gt;Galeria&lt;/b&gt;&lt;/p&gt;&lt;hr size=&quot;1&quot;&gt;&lt;p style=&quot;margin:0px;margin-left:4px;&quot;&gt;&lt;span style=&quot;background-color: initial;&quot;&gt;+ Galeria(fotos: Foto[], videos: Video[])&lt;/span&gt;&lt;br&gt;&lt;/p&gt;&lt;p style=&quot;margin:0px;margin-left:4px;&quot;&gt;+ exibir&lt;span style=&quot;background-color: initial;&quot;&gt;Fotos(): void&lt;/span&gt;&lt;/p&gt;&lt;p style=&quot;margin:0px;margin-left:4px;&quot;&gt;&lt;span style=&quot;background-color: initial;&quot;&gt;+ exibirVideos(): void&lt;/span&gt;&lt;/p&gt;&lt;p style=&quot;border-color: var(--border-color); margin: 0px 0px 0px 4px;&quot;&gt;&lt;br style=&quot;border-color: var(--border-color);&quot;&gt;&lt;/p&gt;" style="verticalAlign=top;align=left;overflow=fill;fontSize=12;fontFamily=Helvetica;html=1;whiteSpace=wrap;" parent="1" vertex="1">
          <mxGeometry x="-415" y="-1380" width="220" height="90" as="geometry" />
        </mxCell>
        <mxCell id="Mkw8pJ0zq_z8xdQMw_YS-99" value="&lt;p style=&quot;margin:0px;margin-top:4px;text-align:center;&quot;&gt;&lt;b&gt;Foto&lt;/b&gt;&lt;/p&gt;&lt;hr size=&quot;1&quot;&gt;&lt;p style=&quot;margin:0px;margin-left:4px;&quot;&gt;&lt;span style=&quot;background-color: initial;&quot;&gt;- nome: String&lt;/span&gt;&lt;br&gt;&lt;/p&gt;&lt;p style=&quot;margin:0px;margin-left:4px;&quot;&gt;- data: String&lt;/p&gt;&lt;p style=&quot;margin:0px;margin-left:4px;&quot;&gt;- local: String&lt;/p&gt;&lt;hr size=&quot;1&quot;&gt;&lt;p style=&quot;margin:0px;margin-left:4px;&quot;&gt;+ Foto(String nome, String data, String local)&lt;/p&gt;&lt;p style=&quot;margin:0px;margin-left:4px;&quot;&gt;+ exibir&lt;span style=&quot;background-color: initial;&quot;&gt;Foto(): void&lt;/span&gt;&lt;/p&gt;" style="verticalAlign=top;align=left;overflow=fill;fontSize=12;fontFamily=Helvetica;html=1;whiteSpace=wrap;" parent="1" vertex="1">
          <mxGeometry x="-780" y="-1280" width="250" height="120" as="geometry" />
        </mxCell>
        <mxCell id="Mkw8pJ0zq_z8xdQMw_YS-100" value="&lt;p style=&quot;margin:0px;margin-top:4px;text-align:center;&quot;&gt;&lt;b&gt;Video&lt;/b&gt;&lt;/p&gt;&lt;hr size=&quot;1&quot;&gt;&lt;p style=&quot;margin:0px;margin-left:4px;&quot;&gt;&lt;span style=&quot;background-color: initial;&quot;&gt;- nome: String&lt;/span&gt;&lt;br&gt;&lt;/p&gt;&lt;p style=&quot;margin:0px;margin-left:4px;&quot;&gt;- data: String&lt;/p&gt;&lt;p style=&quot;margin:0px;margin-left:4px;&quot;&gt;- local: String&lt;/p&gt;&lt;hr size=&quot;1&quot;&gt;&lt;p style=&quot;margin:0px;margin-left:4px;&quot;&gt;+ Video(String nome, String data, String local)&lt;/p&gt;&lt;p style=&quot;margin:0px;margin-left:4px;&quot;&gt;+ reproduzirVideo&lt;span style=&quot;background-color: initial;&quot;&gt;(): void&lt;/span&gt;&lt;/p&gt;" style="verticalAlign=top;align=left;overflow=fill;fontSize=12;fontFamily=Helvetica;html=1;whiteSpace=wrap;" parent="1" vertex="1">
          <mxGeometry x="-100" y="-1280" width="260" height="120" as="geometry" />
        </mxCell>
        <mxCell id="Mkw8pJ0zq_z8xdQMw_YS-104" value="" style="endArrow=diamondThin;endFill=1;endSize=24;html=1;rounded=0;exitX=0.5;exitY=0;exitDx=0;exitDy=0;entryX=0;entryY=0.5;entryDx=0;entryDy=0;" parent="1" source="Mkw8pJ0zq_z8xdQMw_YS-99" target="Mkw8pJ0zq_z8xdQMw_YS-92" edge="1">
          <mxGeometry width="160" relative="1" as="geometry">
            <mxPoint x="-360" y="-1140" as="sourcePoint" />
            <mxPoint x="-200" y="-1140" as="targetPoint" />
            <Array as="points">
              <mxPoint x="-655" y="-1335" />
            </Array>
          </mxGeometry>
        </mxCell>
        <mxCell id="Mkw8pJ0zq_z8xdQMw_YS-105" value="- fotos" style="text;html=1;strokeColor=none;fillColor=none;align=center;verticalAlign=middle;whiteSpace=wrap;rounded=0;labelBackgroundColor=default;" parent="1" vertex="1">
          <mxGeometry x="-590" y="-1360" width="60" height="30" as="geometry" />
        </mxCell>
        <mxCell id="Mkw8pJ0zq_z8xdQMw_YS-106" value="" style="endArrow=diamondThin;endFill=1;endSize=24;html=1;rounded=0;exitX=0.5;exitY=0;exitDx=0;exitDy=0;entryX=1;entryY=0.5;entryDx=0;entryDy=0;" parent="1" source="Mkw8pJ0zq_z8xdQMw_YS-100" target="Mkw8pJ0zq_z8xdQMw_YS-92" edge="1">
          <mxGeometry width="160" relative="1" as="geometry">
            <mxPoint x="-160" y="-1285" as="sourcePoint" />
            <mxPoint y="-1360" as="targetPoint" />
            <Array as="points">
              <mxPoint x="30" y="-1335" />
            </Array>
          </mxGeometry>
        </mxCell>
        <mxCell id="Mkw8pJ0zq_z8xdQMw_YS-107" value="- videos" style="text;html=1;strokeColor=none;fillColor=none;align=center;verticalAlign=middle;whiteSpace=wrap;rounded=0;labelBackgroundColor=default;" parent="1" vertex="1">
          <mxGeometry x="-110" y="-1360" width="60" height="30" as="geometry" />
        </mxCell>
        <mxCell id="Mkw8pJ0zq_z8xdQMw_YS-109" value="&lt;p style=&quot;margin:0px;margin-top:4px;text-align:center;&quot;&gt;&lt;i&gt;&amp;lt;&amp;lt;Interface&amp;gt;&amp;gt;&lt;/i&gt;&lt;br&gt;&lt;b&gt;Camera&lt;/b&gt;&lt;/p&gt;&lt;hr size=&quot;1&quot;&gt;&lt;p style=&quot;margin:0px;margin-left:4px;&quot;&gt;&lt;/p&gt;&lt;p style=&quot;margin:0px;margin-left:4px;&quot;&gt;+ tirarFoto(): void&lt;br&gt;+ gravarVideo(): void&lt;/p&gt;" style="verticalAlign=top;align=left;overflow=fill;fontSize=12;fontFamily=Helvetica;html=1;whiteSpace=wrap;" parent="1" vertex="1">
          <mxGeometry x="-400" y="-1260" width="190" height="80" as="geometry" />
        </mxCell>
        <mxCell id="Mkw8pJ0zq_z8xdQMw_YS-110" value="" style="endArrow=block;dashed=1;endFill=0;endSize=12;html=1;rounded=0;exitX=1;exitY=0.5;exitDx=0;exitDy=0;entryX=0.5;entryY=1;entryDx=0;entryDy=0;" parent="1" source="Mkw8pJ0zq_z8xdQMw_YS-90" target="Mkw8pJ0zq_z8xdQMw_YS-109" edge="1">
          <mxGeometry width="160" relative="1" as="geometry">
            <mxPoint x="-435" y="-721.63" as="sourcePoint" />
            <mxPoint x="-380" y="-1170" as="targetPoint" />
            <Array as="points">
              <mxPoint x="-200" y="-369" />
              <mxPoint x="-210" y="-1100" />
              <mxPoint x="-305" y="-1100" />
            </Array>
          </mxGeometry>
        </mxCell>
        <mxCell id="Mkw8pJ0zq_z8xdQMw_YS-114" value="&lt;p style=&quot;margin:0px;margin-top:4px;text-align:center;&quot;&gt;&lt;b&gt;Telefone&lt;/b&gt;&lt;/p&gt;&lt;hr size=&quot;1&quot;&gt;&lt;p style=&quot;margin:0px;margin-left:4px;&quot;&gt;- numero: String&lt;br&gt;&lt;/p&gt;&lt;hr size=&quot;1&quot;&gt;&lt;p style=&quot;border-color: var(--border-color); margin: 0px 0px 0px 4px;&quot;&gt;+ Telefone(numero: String)&lt;/p&gt;&lt;p style=&quot;border-color: var(--border-color); margin: 0px 0px 0px 4px;&quot;&gt;+ ligar()&lt;/p&gt;&lt;p style=&quot;border-color: var(--border-color); margin: 0px 0px 0px 4px;&quot;&gt;+ atender()&lt;/p&gt;&lt;p style=&quot;border-color: var(--border-color); margin: 0px 0px 0px 4px;&quot;&gt;+ iniciarCorreioVoz()&lt;/p&gt;" style="verticalAlign=top;align=left;overflow=fill;fontSize=12;fontFamily=Helvetica;html=1;whiteSpace=wrap;" parent="1" vertex="1">
          <mxGeometry x="-715" y="-1060" width="240" height="120" as="geometry" />
        </mxCell>
        <mxCell id="Mkw8pJ0zq_z8xdQMw_YS-115" value="&lt;p style=&quot;margin:0px;margin-top:4px;text-align:center;&quot;&gt;&lt;b&gt;Contato&lt;/b&gt;&lt;/p&gt;&lt;hr size=&quot;1&quot;&gt;&lt;p style=&quot;margin:0px;margin-left:4px;&quot;&gt;- nome: String&lt;br&gt;&lt;/p&gt;&lt;p style=&quot;margin:0px;margin-left:4px;&quot;&gt;- sobrenome: String&lt;/p&gt;&lt;hr size=&quot;1&quot;&gt;&lt;p style=&quot;border-color: var(--border-color); margin: 0px 0px 0px 4px;&quot;&gt;+ Contato(nome: String, sobrenome: String, telefone: Telefone, email: Email)&lt;/p&gt;&lt;p style=&quot;border-color: var(--border-color); margin: 0px 0px 0px 4px;&quot;&gt;+ Contato(nome: String, sobrenome: String, telefone: Telefone)&lt;/p&gt;&lt;p style=&quot;border-color: var(--border-color); margin: 0px 0px 0px 4px;&quot;&gt;+ criarContato(): void&lt;/p&gt;" style="verticalAlign=top;align=left;overflow=fill;fontSize=12;fontFamily=Helvetica;html=1;whiteSpace=wrap;" parent="1" vertex="1">
          <mxGeometry x="-802.5" y="-860" width="415" height="120" as="geometry" />
        </mxCell>
        <mxCell id="uBJAZesU7mmP7-SFN5pD-1" value="" style="endArrow=diamondThin;endFill=1;endSize=24;html=1;rounded=0;exitX=0.5;exitY=1;exitDx=0;exitDy=0;entryX=0.5;entryY=0;entryDx=0;entryDy=0;" edge="1" parent="1" source="Mkw8pJ0zq_z8xdQMw_YS-114" target="Mkw8pJ0zq_z8xdQMw_YS-115">
          <mxGeometry width="160" relative="1" as="geometry">
            <mxPoint x="-390" y="-950" as="sourcePoint" />
            <mxPoint x="-235" y="-1025" as="targetPoint" />
            <Array as="points" />
          </mxGeometry>
        </mxCell>
        <mxCell id="uBJAZesU7mmP7-SFN5pD-4" value="&lt;b style=&quot;border-color: var(--border-color);&quot;&gt;Telefone&lt;/b&gt;" style="text;html=1;strokeColor=none;fillColor=none;align=center;verticalAlign=middle;whiteSpace=wrap;rounded=0;" vertex="1" parent="1">
          <mxGeometry x="-640" y="-1100" width="60" height="30" as="geometry" />
        </mxCell>
        <mxCell id="uBJAZesU7mmP7-SFN5pD-7" value="Apps" style="text;html=1;strokeColor=none;fillColor=none;align=center;verticalAlign=middle;whiteSpace=wrap;rounded=0;" vertex="1" parent="1">
          <mxGeometry x="-555" y="-460" width="60" height="30" as="geometry" />
        </mxCell>
        <mxCell id="uBJAZesU7mmP7-SFN5pD-8" value="Internet" style="text;html=1;strokeColor=none;fillColor=none;align=center;verticalAlign=middle;whiteSpace=wrap;rounded=0;" vertex="1" parent="1">
          <mxGeometry x="-555" y="-660" width="60" height="30" as="geometry" />
        </mxCell>
        <mxCell id="uBJAZesU7mmP7-SFN5pD-9" value="" style="endArrow=diamondThin;endFill=1;endSize=24;html=1;rounded=0;exitX=0.5;exitY=0;exitDx=0;exitDy=0;entryX=0.5;entryY=1;entryDx=0;entryDy=0;" edge="1" parent="1" source="Mkw8pJ0zq_z8xdQMw_YS-19" target="Mkw8pJ0zq_z8xdQMw_YS-115">
          <mxGeometry width="160" relative="1" as="geometry">
            <mxPoint x="-290" y="-750" as="sourcePoint" />
            <mxPoint x="-290" y="-830" as="targetPoint" />
            <Array as="points">
              <mxPoint x="-400" y="-680" />
              <mxPoint x="-595" y="-680" />
            </Array>
          </mxGeometry>
        </mxCell>
        <mxCell id="uBJAZesU7mmP7-SFN5pD-12" value="Câmera" style="text;html=1;strokeColor=none;fillColor=none;align=center;verticalAlign=middle;whiteSpace=wrap;rounded=0;" vertex="1" parent="1">
          <mxGeometry x="-335" y="-1430" width="60" height="30" as="geometry" />
        </mxCell>
        <mxCell id="uBJAZesU7mmP7-SFN5pD-15" value="" style="endArrow=classic;html=1;rounded=0;exitX=0.5;exitY=0;exitDx=0;exitDy=0;entryX=0.5;entryY=1;entryDx=0;entryDy=0;" edge="1" parent="1" source="Mkw8pJ0zq_z8xdQMw_YS-61" target="Mkw8pJ0zq_z8xdQMw_YS-20">
          <mxGeometry width="50" height="50" relative="1" as="geometry">
            <mxPoint x="-600" y="-410" as="sourcePoint" />
            <mxPoint x="-550" y="-460" as="targetPoint" />
            <Array as="points">
              <mxPoint x="-742" y="-450" />
              <mxPoint x="-690" y="-450" />
            </Array>
          </mxGeometry>
        </mxCell>
        <mxCell id="uBJAZesU7mmP7-SFN5pD-16" value="" style="endArrow=classic;html=1;rounded=0;exitX=0.5;exitY=0;exitDx=0;exitDy=0;entryX=0.5;entryY=1;entryDx=0;entryDy=0;" edge="1" parent="1" source="Mkw8pJ0zq_z8xdQMw_YS-65" target="Mkw8pJ0zq_z8xdQMw_YS-20">
          <mxGeometry width="50" height="50" relative="1" as="geometry">
            <mxPoint x="-600" y="-410" as="sourcePoint" />
            <mxPoint x="-550" y="-460" as="targetPoint" />
            <Array as="points">
              <mxPoint x="-590" y="-450" />
              <mxPoint x="-690" y="-450" />
            </Array>
          </mxGeometry>
        </mxCell>
        <mxCell id="uBJAZesU7mmP7-SFN5pD-17" value="Extends" style="text;html=1;strokeColor=none;fillColor=none;align=center;verticalAlign=middle;whiteSpace=wrap;rounded=0;" vertex="1" parent="1">
          <mxGeometry x="-715" y="-450" width="60" height="30" as="geometry" />
        </mxCell>
        <mxCell id="uBJAZesU7mmP7-SFN5pD-19" value="" style="endArrow=classic;html=1;rounded=0;exitX=0.5;exitY=0;exitDx=0;exitDy=0;entryX=0.5;entryY=1;entryDx=0;entryDy=0;" edge="1" parent="1" source="Mkw8pJ0zq_z8xdQMw_YS-81" target="Mkw8pJ0zq_z8xdQMw_YS-79">
          <mxGeometry width="50" height="50" relative="1" as="geometry">
            <mxPoint x="50" y="-780" as="sourcePoint" />
            <mxPoint x="100" y="-830" as="targetPoint" />
            <Array as="points">
              <mxPoint x="-75" y="-830" />
              <mxPoint x="25" y="-830" />
            </Array>
          </mxGeometry>
        </mxCell>
        <mxCell id="uBJAZesU7mmP7-SFN5pD-20" value="" style="endArrow=classic;html=1;rounded=0;exitX=0.5;exitY=0;exitDx=0;exitDy=0;entryX=0.5;entryY=1;entryDx=0;entryDy=0;" edge="1" parent="1" source="Mkw8pJ0zq_z8xdQMw_YS-82" target="Mkw8pJ0zq_z8xdQMw_YS-79">
          <mxGeometry width="50" height="50" relative="1" as="geometry">
            <mxPoint x="50" y="-780" as="sourcePoint" />
            <mxPoint x="20" y="-860" as="targetPoint" />
            <Array as="points">
              <mxPoint x="125" y="-830" />
              <mxPoint x="25" y="-830" />
            </Array>
          </mxGeometry>
        </mxCell>
        <mxCell id="uBJAZesU7mmP7-SFN5pD-21" value="Apps" style="text;html=1;strokeColor=none;fillColor=none;align=center;verticalAlign=middle;whiteSpace=wrap;rounded=0;" vertex="1" parent="1">
          <mxGeometry x="-5" y="-800" width="60" height="30" as="geometry" />
        </mxCell>
        <mxCell id="uBJAZesU7mmP7-SFN5pD-23" value="Extends" style="text;html=1;strokeColor=none;fillColor=none;align=center;verticalAlign=middle;whiteSpace=wrap;rounded=0;" vertex="1" parent="1">
          <mxGeometry y="-830" width="60" height="30" as="geometry" />
        </mxCell>
        <mxCell id="uBJAZesU7mmP7-SFN5pD-26" value="&lt;font style=&quot;font-size: 18px;&quot;&gt;&lt;b&gt;IPHONE&lt;/b&gt;&lt;/font&gt;" style="text;html=1;strokeColor=none;fillColor=none;align=center;verticalAlign=middle;whiteSpace=wrap;rounded=0;" vertex="1" parent="1">
          <mxGeometry x="-862.5" y="-1510" width="92.5" height="30" as="geometry" />
        </mxCell>
      </root>
    </mxGraphModel>
  </diagram>
</mxfile>
